<?xml version="1.0" encoding="UTF-8"?>
<svg width="73px" height="85px" viewBox="0 0 73 85" version="1.1" xmlns="http://www.w3.org/2000/svg" xmlns:xlink="http://www.w3.org/1999/xlink">
    <title>icon_lamp</title>
    <g id="Page-1" stroke="none" stroke-width="1" fill="none" fill-rule="evenodd">
        <g id="icon_lamp" transform="translate(0.000000, 0.000000)" fill-rule="nonzero">
            <path d="M72.43,36 C73.03,36.41 72.97,36.75 72.29,36.75 L68.2,36.75 C67.61,36.75 67.49,36.42 67.92,36.02 C68.72,35.29 71.35,35.24 72.43,36.02" id="Path" fill="#65BFCE"></path>
            <path d="M52.07,9.7 C51.9669958,9.35667292 51.9263534,8.99766491 51.95,8.64 C51.95,7.64 53.37,5.38 54.42,5.15 C55.01,5.02 55.23,5.34 54.92,5.87 L52.99,9.17 C52.74,9.6 52.49,9.93 52.44,9.9 L52.07,9.7" id="Path" fill="#65BFCE"></path>
            <path d="M63.83,20.98 C63.12,20.79 62.98,20.37 63.52,20.06 L66.88,18.06 C67.0531126,17.9187883 67.29276,17.8917238 67.4930061,17.9907702 C67.6932522,18.0898167 67.8171772,18.2967127 67.81,18.52 C67.93,19.45 65.11,21.28 63.81,20.94" id="Path" fill="#65BFCE"></path>
            <path d="M43.17,78.4 C46.92,78.12 47.04,77.99 47.04,74.28 C47.04,71.01 47.13,67.74 47.04,64.48 C46.8309051,62.3907462 47.9494039,60.3934269 49.84,59.48 C60.1133634,53.7096611 65.4287501,41.9193144 62.95,30.4 C60.48,19.01 51.19,10.77 39.23,9.4 C23.97,7.62 9.86,20.02 9.76,35.4 C9.69,46.02 14.31,54.09 23.41,59.5 C25.3044991,60.4103675 26.42738,62.4083764 26.22,64.5 C26.11,67.61 26.22,70.73 26.22,73.84 C26.22,77.95 26.22,77.95 30.1,78.55 C31.1,82.69 33.34,84.8 36.76,84.75 C40.18,84.7 42.29,82.58 43.23,78.44" id="Path" fill="#FFFFFF"></path>
            <polygon id="Path" fill="#FFFFFF" points="36.24 5.48 36.98 5.48 36.98 -2.27373675e-13 36.24 -2.27373675e-13"></polygon>
            <path d="M5.7,36.77 C4.09653903,35.2687683 1.60346097,35.2687683 0,36.77 L5.7,36.77 Z" id="Path" fill="#FFFFFF"></path>
            <path d="M20.9,10.47 C21.5,7.94 19.9,5.33 17.76,5 L20.9,10.47" id="Path" fill="#FFFFFF"></path>
            <path d="M5.23,17.47 C5.6,19.82 8.59,21.47 10.34,20.47 L5.23,17.47" id="Path" fill="#FFFFFF"></path>
            <path d="M43.17,78.4 C42.23,82.54 40.03,84.66 36.7,84.71 C33.37,84.76 31.01,82.65 30.04,78.51 C26.16,77.91 26.16,77.91 26.16,73.8 C26.16,70.69 26.08,67.57 26.16,64.46 C26.36738,62.3683764 25.2444991,60.3703675 23.35,59.46 C14.25,54.05 9.63,45.98 9.7,35.36 C9.8,20 23.91,7.6 39.17,9.36 C51.17,10.75 60.42,18.99 62.89,30.36 C65.3687501,41.8793144 60.0533634,53.6696611 49.78,59.44 C47.8894039,60.3534269 46.7709051,62.3507462 46.98,64.44 C47.1,67.7 46.98,70.97 46.98,74.24 C46.98,77.95 46.86,78.08 43.11,78.36" id="Path" fill="#231F20"></path>
            <path d="M39.89,36.61 C39.89,35.45 39.89,34.41 39.89,33.37 C40.05,30.37 42.16,28.2 44.89,28.23 C46.6548922,28.2603674 48.2695189,29.2299868 49.125666,30.773612 C49.981813,32.3172372 49.9494112,34.2003547 49.040666,35.7136123 C48.1319208,37.22687 46.4848922,38.1403678 44.72,38.11 C43.67,38.18 42.62,38.11 41.48,38.11 L41.48,63.21 L45.59,63.21 C45.79,60.56 47.51,59.21 49.59,58.02 C59.4261288,52.2104335 64.2032147,40.571825 61.2849223,29.5271855 C58.3666299,18.4825461 48.4639549,10.7227273 37.0418971,10.5301486 C25.6198393,10.3375698 15.4612022,17.7591499 12.1722436,28.6991336 C8.883285,39.6391173 13.2653076,51.4321507 22.9,57.57 C25.17,59 27.51,60.22 27.62,63.14 L31.69,63.14 L31.69,38.14 C30.53,38.14 29.54,38.2 28.57,38.14 C26.1255632,37.8145235 24.2834577,35.7554461 24.2310543,33.2899928 C24.178651,30.8245395 25.9316007,28.6890489 28.36,28.26 C31.01,28.15 33.1,30.2 33.29,33.17 C33.36,34.28 33.29,35.4 33.29,36.64 L39.89,36.61 Z" id="Path" fill="#231F20"></path>
            <rect id="Rectangle" fill="#231F20" x="33.47" y="38.25" width="6.29" height="24.94"></rect>
            <rect id="Rectangle" fill="#231F20" x="27.69" y="64.78" width="17.79" height="5.21"></rect>
            <g id="Group" transform="translate(0.511354, 0.010000)">
                <path d="M26.9886459,71.6 C27.0549215,72.5054555 27.0549215,73.4145445 26.9886459,74.32 C26.6486459,76.53 27.6786459,77 29.6786459,76.93 C33.3086459,76.79 36.9486459,76.93 40.5886459,76.93 C45.5886459,76.93 45.5886459,76.93 45.0586459,71.93 C45.0586459,71.87 44.9586459,71.82 44.7886459,71.63 L26.9886459,71.6 Z" id="Path" fill="#231F20"></path>
                <path d="M40.9286459,36.72 C43.5586459,36.59 46.3486459,37.46 47.4486459,34.49 C47.729456,33.1635956 47.4469706,31.7801412 46.6686459,30.67 C46.2060139,30.0510618 45.5133432,29.644828 44.7473253,29.5431942 C43.9813074,29.4415603 43.2066698,29.6531144 42.5986459,30.13 C40.1586459,31.71 40.8086459,34.13 40.9286459,36.72" id="Path" fill="#231F20"></path>
                <path d="M31.2786459,36.77 C31.2786459,35.2 31.3786459,33.93 31.2786459,32.67 C31.2594284,31.8218939 30.8912581,31.0192644 30.2609864,30.4514521 C29.6307147,29.8836397 28.7941528,29.6009248 27.9486459,29.67 C26.2568408,29.6130916 24.8302194,30.9197168 24.7386459,32.61 C24.4986459,34.46 25.1486459,36 27.0886459,36.47 C28.4819256,36.6824704 29.8892589,36.7894411 31.2986459,36.79" id="Path" fill="#231F20"></path>
                <path d="M31.1686459,78.41 C31.5286459,81.55 33.3886459,83.41 36.1086459,83.41 C38.8286459,83.41 40.6686459,81.57 40.9986459,78.41 L31.1686459,78.41 Z" id="Path" fill="#231F20"></path>
                <path d="M35.8486459,5.47 C35.7786459,5.47 35.7286459,5.06 35.7286459,4.56 L35.7286459,0.91 C35.7286459,0.41 35.7286459,0 35.8486459,0 L36.3386459,0 C36.4086459,0 36.4686459,0.41 36.4686459,0.92 L36.4686459,4.56 C36.4686459,5.07 36.4086459,5.47 36.3386459,5.47 L35.8486459,5.47" id="Path" fill="#65BFCE"></path>
                <path d="M4.39864591,35.99 C4.83864591,36.42 4.78864591,36.76 4.28864591,36.76 L0.538645914,36.76 C-0.0413540862,36.76 -0.171354086,36.43 0.238645914,36.03 C0.998645914,35.3 3.60864591,35.22 4.39864591,36.03" id="Path" fill="#65BFCE"></path>
                <path d="M20.6886459,9.2 C20.5186459,9.9 20.1186459,10 19.7886459,9.43 C19.1886459,8.43 18.2986459,6.82 17.7886459,5.91 C17.4986459,5.41 17.7886459,5.07 18.3486459,5.16 C19.4286459,5.33 21.0086459,7.94 20.7086459,9.16" id="Path" fill="#65BFCE"></path>
                <path d="M4.90864591,18.63 C4.79864591,17.98 5.14864591,17.7 5.66864591,18.01 L8.98864591,19.94 C9.44864591,20.21 9.43864591,20.66 8.98864591,20.94 C8.11864591,21.46 5.12864591,19.8 4.98864591,18.62" id="Path" fill="#65BFCE"></path>
                <path d="M39.3786459,36.6 L32.7786459,36.6 C32.7786459,35.36 32.8386459,34.24 32.7786459,33.13 C32.5886459,30.13 30.4986459,28.13 27.8486459,28.22 C25.4202466,28.6490489 23.6672969,30.7845395 23.7197002,33.2499928 C23.7721036,35.7154461 25.6142092,37.7745235 28.0586459,38.1 C29.0586459,38.17 30.0586459,38.1 31.1786459,38.1 L31.1786459,63.1 L27.1086459,63.1 C26.9986459,60.18 24.6586459,58.96 22.3886459,57.53 C12.7663765,51.3935517 8.39305872,39.6109191 11.6814146,28.68248 C14.9697705,17.7540408 25.1189797,10.3412214 36.5298102,10.5336108 C47.9406407,10.7260002 57.8341885,18.4767455 60.7522677,29.5098267 C63.6703469,40.5429078 58.9023115,52.171415 49.0786459,57.98 C47.0286459,59.2 45.3086459,60.52 45.0786459,63.17 L40.9886459,63.17 L40.9886459,38.06 C42.1286459,38.06 43.1786459,38.12 44.2286459,38.06 C46.9569326,38.1069442 49.2067017,35.9332867 49.2536459,33.205 C49.3005901,30.4767133 47.1269326,28.2269442 44.3986459,28.18 C41.6586459,28.18 39.5486459,30.29 39.3986459,33.32 C39.3486459,34.32 39.3986459,35.4 39.3986459,36.56" id="Path" fill="#87BAC7"></path>
                <path d="M32.9886459,42.47 C32.9886459,40.14 33.4686459,38.24 34.0586459,38.24 L38.2086459,38.24 C38.7986459,38.24 39.2786459,40.11 39.2786459,42.42 L39.2786459,59 C39.2786459,61.31 38.8086459,63.19 38.2786459,63.19 L34.1286459,63.19 C33.5286459,63.19 33.0386459,61.34 33.0386459,59.06 L32.9886459,42.47 Z" id="Path" fill="#40738F"></path>
                <path d="M26.7086459,65.78 C26.7086459,65.22 28.1086459,64.78 29.8386459,64.78 L42.2586459,64.78 C44.0086459,64.78 45.4286459,65.17 45.4286459,65.66 L45.4286459,69.29 C45.4286459,69.83 44.0386459,70.29 42.3386459,70.29 L29.8886459,70.29 C28.1286459,70.29 26.7086459,69.9 26.7086459,69.42 L26.7086459,65.78 Z" id="Path" fill="#40738F"></path>
                <path d="M26.9886459,72.14 C26.9886459,71.84 28.3686459,71.6 30.0686459,71.6 L41.8886459,71.6 C42.8895456,71.5710961 43.8912789,71.6011481 44.8886459,71.69 C44.9754689,71.734488 45.0430405,71.8091723 45.0786459,71.9 C47.6186459,74.65 45.6186459,76.9 40.6086459,76.9 C38.2186459,76.78 33.3286459,76.8 29.6986459,76.9 C27.8686459,77.66 26.6986459,76.5 27.0086459,74.29 C27.0729585,73.5647563 27.0729585,72.8352437 27.0086459,72.11" id="Path" fill="#40738F"></path>
                <path d="M42.2386459,36.66 C41.5222778,36.6941373 40.9116303,36.1458917 40.8686459,35.43 C39.3886459,34.08 40.1586459,31.71 42.5986459,30.13 C43.1966368,29.6275137 43.9784295,29.3997731 44.7527239,29.502505 C45.5270182,29.605237 46.2223755,30.028963 46.6686459,30.67 C47.4981375,31.7575059 47.7854009,33.16436 47.4486459,34.49 C46.3486459,37.49 43.5586459,36.59 42.2386459,36.66" id="Path" fill="#40738F"></path>
                <path d="M31.2786459,35.98 C31.2821841,36.1835523 31.199384,36.3790884 31.0507437,36.5182004 C30.9021035,36.6573124 30.7015183,36.726996 30.4986459,36.71 C29.3490169,36.8327738 28.1866325,36.744663 27.0686459,36.45 C25.407816,35.9609502 24.3905001,34.2899547 24.7186459,32.59 C24.8049805,30.8972446 26.2348372,29.5876562 27.9286459,29.65 C29.5786459,29.36 31.0686459,30.72 31.2586459,32.65 C31.317898,33.7525378 31.317898,34.8574622 31.2586459,35.96" id="Path" fill="#40738F"></path>
                <path d="M31.3486459,79.98 C31.3014871,79.570328 31.4360359,79.1605439 31.7168598,78.858562 C31.9976837,78.5565801 32.3966328,78.3926713 32.8086459,78.41 L39.3586459,78.41 C39.7711274,78.3904939 40.1716686,78.5515103 40.4558806,78.8510851 C40.7400925,79.1506598 40.8798195,79.5591153 40.8386459,79.97 C40.9386459,81.83 38.8386459,83.35 36.1086459,83.360041 C33.3786459,83.37 31.5286459,81.55 31.3486459,79.98" id="Path" fill="#40738F"></path>
            </g>
        </g>
    </g>
</svg>