<?xml version="1.0" encoding="UTF-8"?>
<svg width="61px" height="89px" viewBox="0 0 61 89" version="1.1" xmlns="http://www.w3.org/2000/svg" xmlns:xlink="http://www.w3.org/1999/xlink">
    <title>icon_pin</title>
    <g id="Page-1" stroke="none" stroke-width="1" fill="none" fill-rule="evenodd">
        <g id="icon_pin" transform="translate(1.000000, 1.000000)">
            <path d="M29.5348642,86.3466663 C32.8148642,81.4566663 35.9248642,76.8866663 38.9848642,72.2766663 C45.1748642,62.9966663 51.3848642,53.7166663 55.7848642,43.3966663 C58.2448642,37.6166663 59.9048642,31.7366663 58.9048642,25.2766663 C56.9747759,12.3645712 46.8286406,2.23288145 33.9138086,0.321191866 C20.9989767,-1.59049772 8.35279596,5.16740954 2.76486418,16.9666663 C-1.67513582,26.3066663 -0.345135822,35.3666663 3.76486418,44.3966663 C10.5948642,59.3266663 20.5748642,72.3266663 29.5148642,86.3966663" id="Path" fill="#376FB7" fill-rule="nonzero"></path>
            <path d="M29.5348642,86.2366663 C20.6148642,72.2366663 10.6648642,59.2366663 3.84486418,44.3866663 C-0.275135822,35.3866663 -1.59513582,26.3866663 2.84486418,17.0266663 C8.57988978,5.07829599 21.523025,-1.6399046 34.5948642,0.54666627 C46.9848642,2.54666627 56.9048642,12.8366663 58.8348642,25.3166663 C59.8348642,31.7666663 58.1748642,37.6266663 55.7248642,43.3866663 C51.3348642,53.6866663 45.1448642,62.9466663 38.9748642,72.2066663 C35.9048642,76.7966663 32.8148642,81.3466663 29.5348642,86.2366663 Z" id="Path" stroke="#231F20"></path>
            <path d="M29.4148642,82.9766663 C20.2548642,68.5466663 9.89486418,55.3566663 3.73486418,39.6266663 C0.773841997,32.1815797 1.20834934,23.8151506 4.92467688,16.7168497 C8.64100441,9.61854886 15.2692659,4.49487032 23.0748642,2.68666627 C33.8348642,0.32666627 43.1948642,3.23666627 50.4248642,11.5866663 C57.6548642,19.9366663 59.0548642,29.2266663 55.2748642,39.4566663 C52.0948642,48.0666663 47.3848642,55.8566663 42.3948642,63.4566663 C38.2148642,69.8666663 33.9148642,76.1966663 29.3948642,82.9466663" id="Path" fill="#87BAC7" fill-rule="nonzero"></path>
            <path d="M42.4748642,29.8666663 C42.5282754,26.4615137 41.2225137,23.1754583 38.8465274,20.7356619 C36.4705411,18.2958656 33.2202365,16.9034958 29.8148642,16.8666663 C26.3600646,16.8024745 23.0218506,18.1163385 20.5375861,20.5180443 C18.0533217,22.9197501 16.6274278,26.2116702 16.5748642,29.6666663 C16.6015563,36.8548994 22.3871797,42.6939286 29.5748642,42.7866663 C36.683097,42.775716 42.4473639,37.0248543 42.4748642,29.9166663" id="Path" fill="#FFFFFF" fill-rule="nonzero"></path>
            <path d="M42.4748642,29.8666663 C42.4473639,36.9748543 36.683097,42.725716 29.5748642,42.7366663 C22.3871797,42.6439286 16.6015563,36.8048994 16.5748642,29.6166663 C16.6274278,26.1616702 18.0533217,22.8697501 20.5375861,20.4680443 C23.0218506,18.0663385 26.3600646,16.7524745 29.8148642,16.8166663 C33.2202365,16.8534958 36.4705411,18.2458656 38.8465274,20.6856619 C41.2225137,23.1254583 42.5282754,26.4115137 42.4748642,29.8166663" id="Path" fill="#231F20" fill-rule="nonzero"></path>
            <path d="M18.5848642,29.7766663 C18.6783732,35.8222692 23.6337655,40.6590639 29.6798598,40.6061249 C35.7259541,40.553186 40.5958922,35.6303617 40.5835468,29.5840483 C40.571159,23.5377349 35.6811244,18.6348727 29.6348642,18.6065464 C26.6791284,18.5928775 23.8422076,19.7691908 21.7634817,21.8704911 C19.6847558,23.9717914 18.539152,26.8212518 18.5848642,29.7766663" id="Path" fill="#17375E" fill-rule="nonzero"></path>
        </g>
    </g>
</svg>